<svg width="2280" height="1436" viewBox="0 0 2280 1436" fill="none" xmlns="http://www.w3.org/2000/svg">
<path fill-rule="evenodd" clip-rule="evenodd" d="M1298.65 8.56063C1383.03 -5.68017 1606.15 -23.8379 1859.19 151.604C2140.72 346.877 2099.21 457.704 2092.75 500.18C2088.98 525.211 2050.65 693.442 1800.1 872.373C1548.23 1052.17 1372.25 1112.56 1293.7 1129.02C1279.87 1132.39 1268.24 1131.47 1258.29 1129.69C1194.42 1117.88 1137.18 875.888 1137.18 875.888C1019.76 274.882 1153.79 93.2921 1225.02 38.5208C1230.71 34.0981 1249.46 16.7446 1298.65 8.56063V8.56063Z" fill="#A6A6A6"/>
<path fill-rule="evenodd" clip-rule="evenodd" d="M1965.85 522.916H2012.41C1993.14 603.808 1935.26 645.869 1841.25 645.869C1732.9 645.869 1660.97 583.043 1660.97 487.793C1660.97 394.424 1730.1 330.379 1830.35 330.379C1858.11 330.379 1889.03 336.462 1918.45 348.368C1934.05 354.633 1938.46 355.969 1944.69 355.969C1954.82 355.969 1959.84 351.481 1961.38 339.951H2012.43V456.069H1961.38C1954.52 429.858 1942.64 412.621 1921.78 400.17C1906.18 390.429 1883.73 384.697 1864.11 384.697C1809.22 384.697 1766 428.548 1766 483.799C1766 543.512 1811.85 590.125 1870.24 590.125C1914.45 590.138 1945.76 568.426 1965.85 522.916V522.916Z" fill="white"/>
<path fill-rule="evenodd" clip-rule="evenodd" d="M1311.46 584.885V640.966H1146.1V584.885H1155.75C1177.15 584.068 1188.63 581.578 1196.33 574.548C1207.15 565.028 1208.26 559.892 1208.26 521.748V470.764C1208.26 432.672 1206.56 426.563 1196.33 417.86C1187.93 410.831 1176.58 408.302 1155.75 407.446H1146.1V329.588H1305.3L1400.63 502.89L1474.2 329.964L1647.48 329.419V407.446H1637.25C1616.47 408.302 1604.53 411.388 1597.3 417.86C1586.49 427.38 1585.24 432.672 1585.24 470.764V521.748C1585.24 559.892 1586.49 565.845 1597.3 574.548C1605.28 581.578 1616.49 584.068 1637.25 584.885H1668.31V640.966H1453.86V584.885C1487.14 581.993 1492.29 577.077 1492.29 544.16V444.837L1394.86 640.979H1374.61L1264.32 462.204V528.92C1264.32 574.146 1272.3 585.352 1306.04 585.352L1311.46 584.885V584.885Z" fill="white"/>
<path fill-rule="evenodd" clip-rule="evenodd" d="M198.865 1167.34H186.324C186.324 1167.34 132.343 1341.14 129.827 1349.34C127.182 1341.14 72.2546 1167.34 72.2546 1167.34H53.0853L0 1430.64H37.9236C37.9236 1430.64 67.1964 1290.58 68.9992 1281.35C72.2805 1290.27 120.554 1434.2 120.554 1434.2H139.088C139.088 1434.2 186.376 1290.32 189.618 1281.35C191.473 1290.71 222.444 1430.64 222.444 1430.64H259.992L206.18 1167.34H198.865ZM439.584 1217.29H400.986V1360.24C400.986 1371.9 397.355 1381.13 390.169 1387.75C382.971 1394.44 372.686 1397.82 359.561 1397.82C347.94 1397.82 338.705 1394.43 332.117 1387.6C325.489 1380.81 322.169 1371.9 322.169 1361V1217.28H282.3V1362.92C282.3 1385.48 289.109 1403.08 302.585 1415.2C315.995 1427.31 335.268 1433.45 359.846 1433.45C384.268 1433.45 404.021 1427.14 418.703 1414.76C433.449 1402.37 440.894 1384.98 440.894 1363.08V1217.29H439.584V1217.29ZM489.466 1230.14C477.391 1241.06 471.218 1254.98 471.218 1271.53C471.218 1280.3 472.787 1288.55 475.835 1295.84C478.818 1303.06 483.337 1309.55 489.077 1314.85C494.706 1320.13 505.756 1326.91 521.877 1334.98C537.726 1342.94 548.336 1350.17 553.368 1356.47C558.296 1362.71 560.813 1369.32 560.813 1376.2C560.813 1390.76 550.502 1397.83 529.322 1397.83C515.431 1397.83 501.061 1392.73 486.639 1382.71L485.329 1381.79L470.556 1417.52L471.438 1418.13C487.339 1428.28 505.393 1433.47 525.094 1433.47C547.791 1433.47 566.169 1427.83 579.774 1416.69C593.406 1405.48 600.344 1391.05 600.344 1373.73C600.344 1364.16 598.684 1355.3 595.351 1347.53C592.091 1339.67 587.156 1332.62 580.89 1326.86C574.612 1321.02 564.327 1314.56 550.255 1307.63C524.238 1294.93 511.061 1282.75 511.061 1271.22C511.061 1264.35 513.317 1258.7 517.779 1254.5C522.241 1250.21 528.596 1248 536.857 1248C550.994 1248 564.691 1252.69 577.492 1261.82L578.893 1262.84L591.084 1228.16L590.384 1227.59C578.815 1218.38 560.579 1213.67 536.144 1213.67C517.26 1213.67 501.593 1219.18 489.466 1230.14V1230.14ZM676.036 1217.29H637.477V1429.84H677.346V1217.29H676.036ZM741.507 1245.49C723.363 1266.46 714.154 1293 714.154 1324.2C714.154 1357.73 722.468 1384.58 738.797 1404C755.242 1423.55 778.575 1433.46 808.237 1433.46C837.782 1433.46 860.622 1425.18 875.965 1408.85L876.639 1408.14L857.859 1375.56L856.64 1377.03C845.784 1390.81 830.493 1397.83 811.168 1397.83C794.359 1397.83 780.728 1391.33 770.625 1378.57C760.469 1365.64 755.333 1347.91 755.333 1325.81C755.333 1303.71 760.91 1285.27 771.87 1270.88C782.751 1256.55 796.901 1249.33 813.905 1249.33C831.972 1249.33 845.175 1253.42 853.229 1261.49L854.448 1262.74L871.127 1229.33L870.206 1228.67C855.602 1218.72 835.94 1213.7 811.674 1213.7C783.296 1213.67 759.704 1224.44 741.507 1245.49V1245.49ZM937.364 1203.14C914.939 1229.22 903.578 1261.96 903.578 1300.65C903.578 1342.11 913.863 1375.33 934.121 1399.4C954.471 1423.56 983.355 1435.81 1020.05 1435.81C1056.63 1435.81 1084.88 1425.46 1103.92 1405.15L1104.62 1404.37L1083.6 1369.22L1082.09 1370.61C1068.59 1387.91 1045.64 1395.99 1021.72 1395.99C1000.86 1395.99 982.045 1384.3 969.568 1368.4C956.987 1352.4 950.93 1328.75 950.93 1301.31C950.93 1273.93 958.258 1250.58 971.824 1232.78C978.416 1224.22 986.876 1217.29 996.557 1212.5C1006.24 1207.72 1016.89 1205.21 1027.69 1205.16C1050.01 1205.16 1065.43 1208.04 1075.41 1217.86L1079.11 1220.84L1097.51 1182.75L1096.45 1182.1C1078.42 1169.96 1054.07 1163.89 1024.09 1163.89C989.074 1163.89 959.879 1177.08 937.364 1203.14V1203.14ZM1173.56 1378.26C1165.42 1365.02 1161.33 1346.09 1161.33 1321.89C1161.33 1299.69 1165.76 1281.79 1174.43 1268.7C1183.01 1255.86 1195.5 1249.31 1211.58 1249.31C1247.35 1249.31 1264.71 1273.02 1264.71 1321.89C1264.71 1346.6 1259.87 1365.67 1250.27 1378.57C1240.82 1391.33 1226.81 1397.83 1208.73 1397.83C1193.37 1397.83 1181.58 1391.24 1173.56 1378.26V1378.26ZM1145 1245.23C1128.5 1266.03 1120.16 1291.85 1120.16 1321.89C1120.16 1356.18 1127.82 1383.63 1142.96 1403.43C1158.16 1423.37 1180.27 1433.46 1208.73 1433.46C1239.61 1433.46 1263.77 1423.28 1280.6 1403.17C1297.39 1383.15 1305.87 1355.83 1305.87 1321.88C1305.87 1287.86 1297.77 1261.1 1281.69 1242.26C1265.58 1223.24 1241.98 1213.66 1211.6 1213.66C1183.89 1213.67 1161.53 1224.31 1145 1245.23V1245.23ZM1499.58 1217.29H1461.04V1360.24C1461.04 1371.9 1457.37 1381.13 1450.2 1387.75C1443 1394.44 1432.67 1397.82 1419.58 1397.82C1407.97 1397.82 1398.74 1394.43 1392.15 1387.6C1385.56 1380.81 1382.21 1371.9 1382.21 1361V1217.28H1342.29V1362.92C1342.29 1385.48 1349.15 1403.08 1362.58 1415.2C1376.03 1427.31 1395.26 1433.45 1419.88 1433.45C1444.27 1433.45 1464.08 1427.14 1478.72 1414.76C1493.44 1402.37 1500.91 1384.98 1500.91 1363.08V1217.29H1499.58ZM1706.83 1217.29H1669.49V1341.75C1665.11 1336.06 1572.7 1217.29 1572.7 1217.29H1552.82V1429.84H1591.35V1302.2C1595.76 1308.03 1691.13 1432.78 1691.13 1432.78H1708.11V1217.29H1706.83V1217.29ZM1910.71 1217.29H1735.72V1252.93H1802.46V1429.84H1842.33V1252.93H1911.94V1217.29H1910.71ZM1998.01 1251.63C2014.37 1251.63 2026.5 1253.63 2034 1257.59C2041.36 1261.5 2044.94 1268.16 2044.94 1278.03C2044.94 1290.17 2041.52 1298.4 2034.71 1302.49C2027.74 1306.69 2016.47 1308.92 2001.14 1308.92C2001.14 1308.92 1988.73 1308.16 1986.71 1308.11V1252.41C1988.52 1252.27 1998.01 1251.63 1998.01 1251.63V1251.63ZM1970.9 1216.45L1945.54 1217.59L1945.49 1218.77V1429.84H1986.71V1342.25C1989.04 1342.33 2007.07 1343.11 2008.32 1343.15L2064.5 1429.84H2110.45C2110.45 1429.84 2049.51 1337.02 2047.86 1334.55C2058.72 1330.15 2068.08 1322.72 2074.84 1313.15C2082.22 1303.11 2086.17 1290.97 2086.11 1278.51C2086.11 1236.6 2058.82 1215.33 2004.89 1215.33L1970.9 1216.45ZM2277.18 1217.29H2237.15C2237.15 1217.29 2190.19 1301.66 2188.01 1305.51L2138.95 1217.29H2096.39C2096.39 1217.29 2167.68 1342.13 2167.96 1342.77V1429.84H2207.86V1342.77C2208.18 1342.13 2279.42 1217.29 2279.42 1217.29H2277.18Z" fill="#A6A6A6"/>
</svg>
