<svg width="2280" height="948" viewBox="0 0 2280 948" fill="none" xmlns="http://www.w3.org/2000/svg">
<path fill-rule="evenodd" clip-rule="evenodd" d="M1632.85 186.245C1535.1 153.665 1642.42 49.518 1681.41 117.882C1681.42 160.046 1676.93 179.864 1632.85 186.245ZM1112.18 910.749C1178.61 955.456 1263.6 952.266 1338.34 936.287C1372.82 929.27 1407.32 918.401 1437.37 904.342C1498.07 874.953 1544.69 830.246 1553.64 765.708C1563.21 699.926 1547.26 659.032 1492.31 623.248C1400.94 563.211 1276.36 614.312 1167.77 646.244C1140.28 653.922 1140.28 587.478 1175.42 579.8C1185.02 577.245 1199.05 582.355 1211.85 586.842C1225.27 590.668 1232.93 584.923 1241.86 581.719C1276.36 568.957 1296.18 538.271 1332.6 556.791C1401.57 573.406 1411.8 499.309 1463.57 537.635C1512.76 551.033 1534.47 516.533 1574.08 496.754C1681.41 517.195 1710.16 461.606 1757.44 360.663C1776.62 347.239 1790.02 367.044 1796.42 383.023C1790.68 440.518 1779.81 404.098 1742.74 439.234C1680.15 498.012 1834.75 470.556 1890.96 450.738C1910.76 443.708 1915.25 432.204 1930.58 425.187C1957.4 412.412 1984.24 443.073 2028.34 423.268C2038.54 413.683 2050.05 388.768 2063.47 395.162C2136.3 431.581 2193.8 387.497 2218.71 324.892C2227.02 301.897 2220.63 282.092 2223.83 269.317C2230.87 239.927 2312.01 197.127 2264.71 180.513C2247.46 174.119 2239.15 190.097 2226.38 202.224C2221.92 206.699 2213.62 220.122 2207.23 222.677C2197.63 208.631 2158.01 200.953 2136.3 202.873C2067.3 209.254 2042.39 272.507 2036.64 368.341L2015.53 385.591C1896.07 452.035 2022.58 170.293 2037.91 135.144C2068.58 104.484 2148.42 117.895 2163.12 69.9843C2191.24 -18.1841 2123.52 57.8446 2071.14 62.3191C2073.03 48.9084 2099.23 0.985178 2084.53 0.349659C2031.51 -0.934348 2027.66 -2.20541 2011.07 65.5097C2009.78 72.5393 2009.78 77.6494 2005.33 82.124C1953.58 109.594 1871.8 109.594 1822.61 132.602C1807.25 139.632 1798.98 151.123 1804.72 170.941C1813.66 199.682 1947.82 156.882 1980.4 143.471C1962.51 188.826 1910.76 275.711 1901.19 333.854C1897.34 358.134 1905.65 375.383 1904.38 393.269C1903.75 411.79 1878.18 423.294 1859.02 412.438C1836.02 367.07 1861.57 338.964 1795.76 309.575C1774.69 278.266 1775.98 244.415 1726.79 268.694C1707.61 287.863 1652.67 511.475 1603.47 448.222C1603.47 372.828 1697.4 258.474 1572.16 303.842C1551.72 346.007 1547.26 422.671 1542.77 468.026C1411.18 549.801 1506.34 377.303 1503.81 324.918C1503.15 310.223 1477.61 321.727 1468.02 324.283C1399.02 343.452 1425.23 488.48 1365.17 519.127C1291.68 519.127 1376.67 389.443 1370.26 353.023C1367.73 335.774 1340.25 353.023 1329.38 357.498C1287.23 374.099 1286.59 430.972 1277.66 484.641C1278.93 510.178 1286.59 519.114 1261.68 535.729C1135.19 577.906 1231.67 438.624 1231.67 383.671C1202.91 346.616 1178.62 414.345 1153.08 414.345C1050.86 351.74 921.794 604.728 1094.29 620.058C1112.83 716.54 919.887 811.712 878.994 846.873C872.6 857.08 872.6 857.08 871.964 864.123C910.925 943.329 1022.1 754.866 1049.56 805.331C1075.12 851.944 1080.87 889.648 1112.18 910.749V910.749ZM2121.6 377.912C2054.52 360.027 2127.98 200.305 2173.35 268.668C2173.35 308.913 2165.67 365.137 2121.6 377.912ZM1148.58 876.872C1121.11 855.135 1097.47 819.364 1100.67 763.789C1102.59 731.844 1122.4 713.298 1149.85 694.79C1254.65 653.274 1489.75 568.944 1502.52 735.67C1505.71 776.551 1487.19 798.288 1459.07 828.936C1435.44 854.499 1407.98 872.385 1376.66 884.511C1360.68 890.918 1344.08 896.016 1326.17 900.49C1268.68 913.278 1196.52 915.833 1148.58 876.872V876.872ZM1087.9 577.88C992.064 529.957 1144.76 397.069 1137.08 483.318C1126.22 516.533 1126.87 572.135 1087.9 577.88ZM629.819 133.225C599.145 123.64 591.48 98.0898 599.794 75.0814C608.094 52.086 634.929 19.506 664.318 31.6457C689.233 42.5014 693.708 66.7808 685.407 89.1406C676.471 110.865 655.382 130.67 629.819 133.225ZM29.2796 947.778C15.2204 943.316 -10.9785 919.686 5.00021 903.707C56.1141 895.393 107.863 823.203 126.384 777.861C96.3592 750.378 10.1103 707.565 54.83 648.799C121.274 622.6 84.8551 730.573 155.774 723.557C189.002 574.054 243.307 429.675 311.67 292.948C369.801 206.063 204.346 335.748 194.125 347.888C165.371 385.578 154.516 409.857 108.512 381.116C124.478 299.977 281.645 195.843 369.165 211.173C381.941 192.004 443.275 82.1241 473.3 132.589C472.664 138.335 470.096 143.445 466.905 148.555C450.291 172.199 420.902 199.669 411.966 218.203C539.108 275.698 525.684 416.251 475.219 536.351C452.224 589.397 421.55 629.643 394.08 671.794C382.576 689.68 431.77 696.722 444.546 685.218C498.214 636.024 530.159 593.846 558.264 546.584C577.434 514.64 592.129 478.221 612.582 439.246C632.387 402.192 514.829 475.017 558.264 388.768C584.463 370.247 632.374 381.103 650.907 361.947C675.187 298.693 710.958 251.418 757.61 208.618C805.52 165.169 855.998 122.369 923.078 130.034C947.993 133.238 912.222 195.194 884.739 245.037C852.795 301.897 850.24 308.291 824.689 353.011C845.13 360.04 863.664 363.866 879.629 373.464C942.234 410.506 967.149 469.92 960.768 547.868C955.658 606.66 917.319 647.554 857.905 662.871C759.516 688.435 723.097 614.312 719.907 539.555C718.623 502.526 726.288 458.429 733.317 430.959C740.983 404.124 745.457 406.044 742.254 402.853C735.872 397.73 702.008 407.328 686.043 409.234C625.344 497.403 501.405 802.776 359.581 729.315C353.187 726.125 348.076 722.299 342.331 718.447C296.327 755.501 262.476 770.831 192.841 786.81C162.803 821.932 110.418 937.571 29.2796 947.778V947.778ZM848.956 612.393C753.758 591.952 771.008 468.636 807.427 398.366C912.209 398.353 964.594 598.956 848.956 612.393ZM707.767 358.743C757.61 350.443 761.436 360.663 768.465 351.078C783.796 330.638 800.397 308.913 814.456 285.282C827.232 264.829 838.736 243.118 841.926 221.393C851.511 154.949 707.767 318.485 707.767 358.743V358.743ZM221.582 722.273C243.942 715.23 254.162 713.311 293.772 688.409C328.907 666.671 256.717 634.727 288.662 607.27C336.572 565.728 323.162 644.324 357.026 644.324C414.534 570.838 533.998 314.659 388.335 266.1C355.742 271.21 204.333 692.87 221.582 722.273Z" fill="#A6A6A6"/>
</svg>
