<svg width="2280" height="1021" viewBox="0 0 2280 1021" fill="none" xmlns="http://www.w3.org/2000/svg">
<path fill-rule="evenodd" clip-rule="evenodd" d="M858.715 256.27V705.866H615.934V4.50049H975.612L1092.5 418.119L1209.4 4.50049H1564.58V701.353H1330.76V256.27L1186.91 705.866H1002.58L858.715 256.27Z" fill="#A6A6A6"/>
<path fill-rule="evenodd" clip-rule="evenodd" d="M1497.13 9.00098L1771.38 346.189L1479.14 705.866H1564.58L1816.32 400.13L2063.61 705.866H2158.03L1865.79 350.676L2140.04 9.00098H2054.62L1820.84 296.735L1587.05 9.00098H1497.13V9.00098Z" fill="#A6A6A6"/>
<path fill-rule="evenodd" clip-rule="evenodd" d="M2122.05 800.273H2140.04C2140.04 800.273 2135.55 755.307 2086.08 723.843C2036.64 692.352 1973.69 701.353 1942.22 710.341C1915.25 719.329 1834.31 759.782 1834.31 845.227C1829.83 926.132 1861.29 957.623 1892.78 989.087C1928.72 1020.55 2018.65 1025.05 2059.13 1007.08C2144.55 971.111 2144.55 894.68 2144.55 894.68H2126.56C2126.56 894.68 2117.57 1002.56 1996.18 1002.56C1879.27 1002.56 1852.29 917.144 1852.29 854.202C1852.29 795.76 1901.76 723.843 1991.66 719.342C2104.06 719.342 2122.05 800.273 2122.05 800.273V800.273ZM1789.37 710.354H1807.35V1011.56H1789.37V710.354V710.354ZM1735.42 795.773H1757.88C1757.88 795.773 1757.88 755.32 1730.91 732.844C1699.44 705.866 1654.48 696.878 1609.52 701.353C1569.07 705.866 1506.11 728.33 1506.11 782.284C1506.11 831.725 1551.08 845.239 1591.53 854.202C1632.01 867.703 1681.47 872.191 1717.43 885.692C1757.88 903.681 1766.87 971.111 1703.93 989.1C1641 1007.09 1582.57 1002.58 1551.08 980.112C1510.63 953.135 1515.11 912.682 1515.11 912.682H1497.13C1497.13 912.682 1492.64 975.612 1546.59 998.101C1600.52 1025.08 1645.49 1020.56 1681.45 1016.09C1717.42 1011.58 1762.38 984.6 1766.87 948.66C1771.38 908.182 1757.88 872.204 1694.95 858.728C1600.52 836.264 1524.09 831.751 1528.6 782.297C1528.6 732.857 1578.04 719.342 1627.5 719.342C1739.89 719.342 1735.42 795.773 1735.42 795.773ZM1209.4 908.169C1209.4 908.169 1209.4 1020.56 1339.76 1020.56C1492.64 1020.56 1479.14 908.169 1479.14 908.169V710.354H1456.67V908.169C1456.67 908.169 1465.66 998.101 1339.76 998.101C1227.37 998.101 1231.88 908.169 1231.88 908.169V705.866H1209.42V908.169H1209.4ZM876.704 705.866H854.215V1007.09H872.204V732.844L1011.58 1007.09H1029.55L1164.44 732.844V1007.09H1186.92V710.354H1155.45L1020.56 989.1L876.704 705.866ZM687.877 265.258C674.389 179.839 584.469 4.50051 355.177 0C148.374 0 0 4.50051 0 4.50051V701.353H287.734C310.211 701.353 494.55 719.342 611.434 602.459C728.33 476.561 692.365 310.224 687.877 265.258V265.258ZM485.549 548.504C418.106 611.46 278.746 602.459 278.746 602.459H143.874V103.408H323.712C350.689 103.408 404.631 107.908 463.085 148.361C526.028 184.326 553.005 247.269 553.005 337.188C557.492 427.107 548.491 485.562 485.549 548.504V548.504ZM2176 705.866H2220.97V710.354H2198.48V764.308H2193.99V710.354H2176V705.866ZM2225.46 705.866H2234.44L2252.43 755.32L2274.92 705.866H2279.41V764.308H2274.92V714.855L2256.95 764.308H2252.43L2229.96 714.855V764.308H2225.46V705.866Z" fill="#A6A6A6"/>
</svg>
