<svg width="2427" height="886" viewBox="0 0 2427 886" fill="none" xmlns="http://www.w3.org/2000/svg">
<path fill-rule="evenodd" clip-rule="evenodd" d="M774.074 353.804C706.035 460.727 584.093 548.195 557.583 565.885C572.602 661.304 595.585 770.004 630.045 868.094H577.907C577.907 868.094 498.376 606.52 493.072 308.747L530.191 306.088C530.191 306.088 533.719 394.451 549.633 513.747C697.203 421.843 752.869 332.598 774.074 273.391C789.988 228.321 786.448 200.047 786.448 200.047C782.92 185.91 779.379 173.55 774.074 162.046C727.241 53.3593 592.044 39.2222 462.152 39.2222C318.122 39.2222 0 87.82 0 87.82V40.9861L279.239 10.0533C508.104 -12.9162 691.898 -0.555996 774.074 89.5839C799.703 116.976 815.604 152.319 820.026 195.612C825.331 249.527 805.889 304.311 774.074 353.804V353.804ZM2318.67 366.164C2354.01 343.195 2376.98 321.989 2376.98 321.989H2363.74C2363.74 321.989 2346.94 335.244 2318.67 350.263C2285.08 368.823 2234.72 391.792 2179.06 399.743C2166.68 400.625 2153.42 402.402 2141.06 402.402C2078.31 402.402 2041.21 378.55 2020 349.381C1982.87 298.125 1991.7 229.203 1991.7 229.203C1954.6 208.88 1868.01 209.762 1868.01 209.762C1865.35 215.948 1862.72 222.135 1860.06 227.439C1828.24 299.02 1772.56 330.822 1740.78 344.077C1730.17 348.499 1722.2 350.263 1718.69 351.145C1707.6 353.384 1696.18 353.384 1685.1 351.145C1686.87 350.263 1687.76 348.499 1689.51 347.617C1712.48 322.884 1728.39 303.442 1740.78 286.646C1770.81 245.999 1770.81 227.452 1770.81 212.421C1770.81 198.283 1763.75 173.537 1740.78 157.636C1728.39 149.686 1711.59 143.499 1689.51 143.499C1682.44 143.499 1676.26 144.381 1669.2 146.158C1640.04 152.345 1613.52 172.668 1595.86 198.296C1579.95 220.397 1571.12 246.012 1571.12 269.877C1571.12 299.915 1582.62 323.779 1595.86 340.562C1607.34 354.699 1619.73 363.531 1627.68 367.072C1627.68 367.072 1617.07 379.445 1595.86 398.005C1580.47 411.307 1564.55 423.985 1548.14 436.006C1503.07 416.565 1460.67 398.005 1426.19 383.868C1379.36 365.308 1347.57 352.948 1344.9 351.171C1333.42 346.748 1335.17 342.339 1335.17 342.339C1354.63 322.015 1390.85 293.741 1426.19 268.995C1467.74 238.957 1506.62 212.446 1512.81 208.906C1524.28 200.955 1530.46 196.533 1528.72 190.346C1526.94 185.041 1504.86 166.482 1504.86 166.482C1491.61 172.668 1459.79 196.52 1426.21 223.03C1383.8 257.49 1337.86 297.256 1318.42 313.157C1310.47 179.724 1309.57 20.6755 1309.57 20.6755L1275.98 21.5575C1260.06 154.99 1298.95 445.708 1302.5 470.428C1302.5 470.428 1283.05 487.224 1247.7 497.833C1213.24 508.416 1212.36 495.174 1207.06 484.591C1202.63 473.982 1180.55 352.922 1180.55 352.922H1055.96C1049.77 431.558 999.411 542.021 990.566 568.518C980.838 594.16 973.783 574.731 971.124 565.885C968.465 557.04 961.397 474.864 959.633 454.553L961.397 448.341H922.513C922.513 448.341 912.786 623.303 807.64 653.354C807.64 653.354 788.199 656.012 774.061 638.335C765.229 626.856 758.148 607.402 759.924 572.072C761.676 551.174 766.437 530.638 774.061 511.101C800.572 446.603 863.306 390.936 964.925 398.887L970.229 364.426C970.229 364.426 872.152 344.984 798.808 417.447C789.081 426.292 781.13 436.006 774.061 444.839C726.346 510.219 728.11 577.377 728.11 582.694C728.11 592.396 729.886 676.349 774.061 694.909C779.366 697.542 786.435 698.424 793.503 698.424C854.474 698.424 899.544 640.993 937.532 540.257C940.178 561.463 944.601 607.415 949.024 618.906C954.328 633.925 956.092 641.875 971.111 641.875C986.13 641.875 996.739 621.539 1008.22 599.451C1019.71 576.482 1070.08 473.1 1079.8 405.06C1079.8 405.06 1078.03 383.855 1111.61 383.855C1135.48 383.855 1144.31 381.196 1150.5 383.855C1155.8 386.514 1156.68 388.278 1158.45 400.638C1158.45 400.638 1169.94 472.205 1177.01 509.311C1184.96 545.536 1201.75 539.349 1201.75 539.349C1284.81 529.648 1337.83 473.969 1337.83 473.969C1331.64 453.658 1327.22 419.184 1323.69 376.773C1359.04 390.91 1393.51 405.942 1426.18 420.066C1457.11 433.322 1486.27 445.695 1514.56 458.055C1501.29 466.005 1488.03 474.851 1473.02 482.801L1480.97 488.093C1480.97 488.093 1500.39 480.142 1527.8 465.123C1552.55 475.733 1574.63 487.211 1595.84 497.82C1620.38 509.997 1644.82 522.366 1669.17 534.927C1697.44 549.946 1721.31 563.201 1740.76 573.81C1769.04 590.606 1788.47 602.084 1798.19 607.376H1294.53V885.72H2426.46V607.376H1876.84C1871.52 603.861 1866.23 599.425 1860.05 595.016C1830.89 573.81 1788.45 549.064 1740.76 525.199C1717.79 513.721 1693.93 501.335 1669.17 489.857C1644.97 478.129 1620.52 466.93 1595.84 456.265L1566.68 443.023C1575.53 437.718 1586.11 431.545 1595.84 424.476C1617.49 410.276 1638.16 394.629 1657.7 377.642C1661.22 378.524 1665.65 378.524 1669.18 379.406C1693.43 380.337 1717.66 377.045 1740.78 369.679C1793.8 352.014 1835.31 313.131 1860.06 283.08C1879.49 260.992 1889.21 243.314 1889.21 243.314C1950.19 243.314 1951.96 256.57 1951.96 256.57C1951.96 318.435 1976.68 367.915 2020 398.835C2050.91 421.804 2091.57 434.178 2140.18 434.178C2152.54 434.178 2165.8 432.414 2179.06 429.768C2231.2 420.079 2281.56 391.792 2318.67 366.164V366.164ZM2318.67 618.893H2414.98V874.255H1305.13V618.893H2318.67ZM2318.67 821.247C2330.17 820.365 2335.47 815.061 2335.47 815.061C2335.47 815.061 2344.31 806.215 2335.47 748.798C2332.81 729.343 2326.62 714.324 2318.67 701.964C2304.53 676.323 2285.97 664.858 2285.97 664.858L2289.51 654.249C2289.51 654.249 2289.51 652.472 2316.89 654.249H2318.67C2343.42 656.907 2339.88 666.609 2339.88 666.609C2333.69 663.976 2325.74 663.094 2318.67 663.094C2311.6 662.212 2305.43 663.094 2301.87 663.094C2296.58 663.094 2302.76 667.504 2302.76 667.504C2308.94 672.821 2314.26 677.231 2318.67 683.418C2354.89 723.183 2361.08 783.272 2361.08 802.7C2361.08 823.932 2353.13 834.515 2353.13 834.515C2348.72 836.292 2333.7 836.292 2318.68 836.292H2296.6C2285.09 836.292 2278.02 833.633 2278.02 833.633C2274.51 808.018 2282.46 780.613 2282.46 780.613C2287.75 818.614 2292.19 816.863 2292.19 816.863C2303.65 821.247 2312.5 821.247 2318.67 821.247V821.247ZM2179.08 709.02C2181.71 711.679 2223.25 753.195 2223.25 787.643V836.253C2223.25 836.253 2223.25 838.912 2219.71 838.912H2201.16C2201.16 838.912 2200.28 837.135 2201.16 832.7C2201.16 829.185 2203.8 802.662 2202.91 793.842C2202.03 786.774 2198.5 762.027 2179.08 729.317C2174.64 723.131 2169.35 716.075 2164.06 709.007V703.715C2164.06 703.715 2171.98 697.503 2179.08 689.552C2183.49 685.143 2187.9 679.851 2188.78 676.31C2192.32 666.583 2187 663.068 2182.59 663.068H2155.21L2163.16 828.303C2163.16 828.303 2164.04 837.148 2158.73 837.148H2141.07C2141.07 837.148 2133.98 839.807 2133.98 828.303C2134.86 814.166 2141.93 648.931 2141.93 648.931H2186.99C2188.76 648.931 2210.85 651.564 2211.73 668.36C2211.73 682.497 2186.99 694.883 2179.05 700.174C2177.27 701.056 2176.39 701.056 2176.39 701.951C2174.61 703.728 2173.73 704.584 2178.17 709.02H2179.08V709.02ZM2020.01 700.187C2012.95 701.964 2005.85 703.728 2001.44 705.479C2007.63 680.759 2016.46 663.068 2018.24 660.409C2018.24 659.527 2019.12 659.527 2020.01 658.658C2022.65 658.658 2025.31 665.727 2025.31 665.727C2028.85 675.428 2031.49 686.037 2034.15 696.634C2030.6 697.529 2025.31 699.293 2020.01 700.187V700.187ZM2020.01 648.944H2027.08C2039.44 648.944 2039.44 656.894 2039.44 656.894C2064.19 696.634 2066.82 815.956 2067.72 827.421C2068.6 838.03 2065.94 837.148 2065.94 837.148H2042.98C2042.98 835.371 2042.1 833.607 2042.1 830.962C2041.22 825.644 2045.62 760.263 2035.89 706.361C2031.48 703.728 2025.31 706.361 2025.31 706.361L2020.01 709.02C2005.85 718.747 1997.05 740.835 1993.49 757.605C1992.61 769.991 1995.27 828.303 1994.37 830.962C1994.37 832.713 1993.49 835.371 1992.6 837.148H1971.39C1968.73 714.312 2004.09 661.291 2006.73 655.117C2009.39 648.931 2014.68 648.931 2014.68 648.931H2020.01V648.944ZM1860.07 746.139C1860.95 718.76 1862.73 693.119 1862.73 688.709H1861.85C1861.85 686.05 1860.97 683.392 1860.07 681.615C1853 665.727 1828.26 663.068 1822.97 662.186C1819.42 661.304 1815.9 649.826 1815.9 649.826H1921.04L1914.83 660.409H1852.99C1852.99 662.186 1856.51 663.95 1860.06 665.727C1863.57 668.36 1868.9 670.137 1872.42 672.795C1881.26 678.087 1879.49 686.932 1879.49 688.709L1885.67 828.316C1885.67 828.316 1886.56 837.161 1881.26 837.161H1863.59C1863.59 837.161 1861.84 838.043 1860.07 837.161C1858.31 836.279 1856.53 833.62 1856.53 828.316C1857.41 821.247 1859.19 781.469 1860.07 746.139ZM1740.79 648.049H1746.08L1754.93 828.303C1754.93 828.303 1755.81 837.148 1749.61 837.148H1732.84C1732.84 837.148 1725.77 839.807 1725.77 828.303C1726.65 814.166 1733.72 648.049 1733.72 648.049H1740.79ZM1669.2 178.842C1678.92 176.196 1687.77 174.419 1691.28 174.419C1703.67 174.419 1738.12 185.015 1738.12 218.594C1738.12 246.881 1700.12 299.902 1669.2 327.281C1663.01 332.585 1656.84 337.008 1651.52 339.654C1651.52 339.654 1597.64 333.467 1601.16 265.428C1603.82 210.644 1643.57 187.674 1669.2 178.842ZM1595.86 814.179C1619.73 813.297 1618.83 788.537 1618.83 788.537V731.107C1618.83 723.157 1611.77 667.478 1611.77 663.95V648.931H1623.24V650.708C1623.24 655.999 1625.02 666.596 1627.68 674.546C1630.31 686.05 1642.7 718.747 1642.7 731.107V823.011C1642.7 823.011 1638.26 837.148 1622.36 837.148H1569.34C1553.43 837.148 1549.03 823.011 1549.03 823.011V731.107C1549.03 718.747 1561.39 686.037 1564.05 674.546C1566.71 666.596 1568.46 655.999 1568.46 650.708V648.931H1579.07V663.95C1579.07 667.465 1572 723.144 1572 731.107V788.537C1572 788.537 1572 814.179 1595.86 814.179ZM1426.19 810.625H1443.87C1443.87 810.625 1452.72 807.11 1452.72 796.488V753.195C1452.72 753.195 1450.06 709.902 1448.28 707.243C1445.65 704.584 1442.1 700.174 1434.14 700.174C1431.51 700.174 1428.85 700.174 1426.19 701.056C1422.68 701.938 1419.13 702.833 1418.24 703.715C1416.49 704.571 1420.02 695.765 1426.19 691.329C1428.12 689.565 1430.65 688.62 1433.26 688.696H1458.01C1460.67 700.174 1470.37 739.94 1470.37 752.3V822.998C1470.37 822.998 1468.62 837.135 1452.72 837.135H1399.7C1383.78 837.135 1382.02 822.998 1382.02 822.998V748.772C1382.02 748.772 1390.86 677.179 1414.72 648.023C1414.72 648.023 1420.01 647.141 1426.19 647.141C1436.8 647.141 1450.06 648.023 1450.94 655.092V663.042C1450.94 663.042 1438.58 658.632 1430.63 658.632H1426.19C1420.9 659.488 1418.24 660.383 1418.24 660.383C1418.24 660.383 1401.47 721.354 1401.47 730.199V806.189C1401.47 806.189 1404.99 810.599 1412.06 810.599C1415.6 810.625 1420.9 810.625 1426.19 810.625V810.625Z" fill="#A6A6A6"/>
</svg>
